# xmcd
#
# Track frame offsets:
#	150
#	17075
#	33577
#	54619
#	71080
#	90956
#	110041
#	131444
#	150268
#	165493
#	180912
#	195315
#
# Disc length: 2781 seconds
#
# Revision: 1
# Processed by: cddbd v1.5.2PL0 Copyright (c) Steve Scherf et al.
# Submitted via: audiograbber 1.83.01
#
DISCID=8c0adb0c
DTITLE=Dierks Bentley - Riser
DYEAR=2014
DGENRE=Country
TTITLE0=Bourbon In Kentucky
TTITLE1=Say You Do
TTITLE2=I Hold On
TTITLE3=Pretty Girls
TTITLE4=Here On Earth
TTITLE5=Drunk On A Plane
TTITLE6=Five
TTITLE7=Riser
TTITLE8=Sounds Of Summer
TTITLE9=Damn These Dreams
TTITLE10=Back Porch
TTITLE11=Hurt Somebody
EXTD=
EXTT0=
EXTT1=
EXTT2=
EXTT3=
EXTT4=
EXTT5=
EXTT6=
EXTT7=
EXTT8=
EXTT9=
EXTT10=
EXTT11=
PLAYORDER=
